<?xml version="1.0" encoding="UTF-8" standalone="no"?>
<!DOCTYPE svg PUBLIC "-//W3C//DTD SVG 1.1//EN"
 "http://www.w3.org/Graphics/SVG/1.1/DTD/svg11.dtd">
<!-- Generated by graphviz version 2.50.0 (20211204.2007)
 -->
<!-- Title: detangled Pages: 1 -->
<svg width="204pt" height="188pt"
 viewBox="0.00 0.00 204.04 188.00" xmlns="http://www.w3.org/2000/svg" xmlns:xlink="http://www.w3.org/1999/xlink">
<g id="graph0" class="graph" transform="scale(1 1) rotate(0) translate(4 184)">
<title>detangled</title>
<polygon fill="white" stroke="transparent" points="-4,4 -4,-184 200.04,-184 200.04,4 -4,4"/>
<!-- service -->
<g id="node1" class="node">
<title>service</title>
<ellipse fill="none" stroke="black" cx="71.7" cy="-162" rx="36" ry="18"/>
<text text-anchor="middle" x="71.7" y="-158.3" font-family="Times,serif" font-size="14.00">service</text>
</g>
<!-- database -->
<g id="node2" class="node">
<title>database</title>
<ellipse fill="none" stroke="black" cx="106.7" cy="-90" rx="40.89" ry="18"/>
<text text-anchor="middle" x="106.7" y="-86.3" font-family="Times,serif" font-size="14.00">database</text>
</g>
<!-- service&#45;&gt;database -->
<g id="edge1" class="edge">
<title>service&#45;&gt;database</title>
<path fill="none" stroke="black" d="M79.99,-144.41C84.07,-136.25 89.09,-126.22 93.66,-117.07"/>
<polygon fill="black" stroke="black" points="96.88,-118.47 98.22,-107.96 90.62,-115.34 96.88,-118.47"/>
</g>
<!-- domain -->
<g id="node3" class="node">
<title>domain</title>
<ellipse fill="none" stroke="black" cx="37.7" cy="-18" rx="37.89" ry="18"/>
<text text-anchor="middle" x="37.7" y="-14.3" font-family="Times,serif" font-size="14.00">domain</text>
</g>
<!-- service&#45;&gt;domain -->
<g id="edge2" class="edge">
<title>service&#45;&gt;domain</title>
<path fill="none" stroke="black" d="M66.55,-143.89C63.51,-133.54 59.69,-120.07 56.7,-108 51.6,-87.43 46.62,-63.97 43.04,-46.31"/>
<polygon fill="black" stroke="black" points="46.4,-45.26 41.01,-36.14 39.54,-46.63 46.4,-45.26"/>
</g>
<!-- database&#45;&gt;domain -->
<g id="edge3" class="edge">
<title>database&#45;&gt;domain</title>
<path fill="none" stroke="black" d="M91.04,-73.12C82.04,-63.99 70.58,-52.36 60.58,-42.22"/>
<polygon fill="black" stroke="black" points="62.8,-39.49 53.29,-34.82 57.82,-44.4 62.8,-39.49"/>
</g>
<!-- orm library -->
<g id="node4" class="node">
<title>orm library</title>
<ellipse fill="none" stroke="black" cx="144.7" cy="-18" rx="51.19" ry="18"/>
<text text-anchor="middle" x="144.7" y="-14.3" font-family="Times,serif" font-size="14.00">orm library</text>
</g>
<!-- database&#45;&gt;orm library -->
<g id="edge4" class="edge">
<title>database&#45;&gt;orm library</title>
<path fill="none" stroke="black" d="M115.7,-72.41C120.18,-64.16 125.69,-54.01 130.7,-44.78"/>
<polygon fill="black" stroke="black" points="133.8,-46.41 135.49,-35.96 127.64,-43.07 133.8,-46.41"/>
</g>
</g>
</svg>
